<?xml version="1.0" encoding="utf-8"?>
<!-- Generator: Adobe Illustrator 11.0, SVG Export Plug-In  -->
<!DOCTYPE svg PUBLIC "-//W3C//DTD SVG 1.0//EN"    "http://www.w3.org/TR/2001/REC-SVG-20010904/DTD/svg10.dtd" [
	<!ENTITY ns_flows "http://ns.adobe.com/Flows/1.0/">
	<!ENTITY ns_svg "http://www.w3.org/2000/svg">
	<!ENTITY ns_xlink "http://www.w3.org/1999/xlink">
]>
<svg  xmlns="&ns_svg;" xmlns:xlink="&ns_xlink;" xmlns:a="http://ns.adobe.com/AdobeSVGViewerExtensions/3.0/"
	 width="512" height="455" viewBox="-0.664 -0.752 512 455" xml:space="preserve">
	<defs>
	</defs>
	<g>
		<path fill="#ED171F" d="M469.872,453.888H41.256C18.216,453.888,0,435.312,0,412.56c0-7.488,1.584-14.616,5.472-20.808
			L219.816,20.736c15.912-27.648,55.512-27.648,71.136,0l214.344,371.016c3.888,6.48,5.544,13.32,5.544,20.808
			C510.84,435.312,492.624,453.528,469.872,453.888z"/>
		<polygon fill="#FEB82F" points="255.528,53.928 51.984,406.08 458.784,406.08 "/>
		<path stroke="#000000" stroke-width="0.216" d="M214.632,222.768l19.872-20.448c2.304-2.304,5.184-3.6,8.712-3.6
			c20.808,1.008,41.328,6.84,59.184,17.28c2.952,1.584,4.896,4.176,5.544,7.488l5.832,27.576c3.24,4.896,4.896,10.08,4.896,15.624
			c0,4.608-1.296,8.784-3.24,12.672l-8.136,14.04l-3.888,13.608c-3.6,12.313-22.176,9.72-22.176-3.24c0-0.936,0-1.944,0.36-2.88
			l2.304-7.2l-20.808-6.192c-5.256,13.392-24.696,9.432-24.696-4.536c0-0.936,0-1.584,0-2.304l-20.808-6.12l-1.944,7.128
			c-3.24,12.672-21.816,10.08-21.816-2.952c0-0.936,0-2.232,0.36-3.24l3.888-13.32l0.36-16.272
			C199.08,235.8,205.272,227.016,214.632,222.768z"/>
		<path fill="#FEB82F" stroke="#000000" stroke-width="0.216" d="M227.664,226.008l73.44,20.88l-4.536-20.88
			c-16.272-9.36-34.776-14.904-54-15.552L227.664,226.008z"/>
		<path stroke="#000000" stroke-width="0.216" d="M238.68,374.256c1.368-1.008,2.304-2.952,2.304-4.608
			c0-1.584-0.648-2.88-1.584-3.888c-0.36-0.288-1.008-0.648-1.368-0.936c-0.288,0-0.288,0-0.288,0l-68.616-22.176
			c-5.184-1.584-5.184-8.784,0-10.368l33.48-12.384c1.008,0,1.296-0.648,1.296-1.584c0-1.008-0.648-1.656-1.584-1.656
			c0,0,0,0-0.36,0l-66.672,11.736c-4.248,0.648-7.488,4.536-7.488,9.072c0,1.656,0.648,3.6,1.656,5.184
			c1.584,1.656,3.6,3.312,5.832,3.96l64.368,21.096c0.72,0.36,1.368,1.296,1.368,1.944c0,1.008-0.648,1.656-1.368,2.304
			l-65.952,22.752h66.672l37.656-20.16L238.68,374.256z"/>
		<path stroke="#000000" stroke-width="0.216" d="M365.76,374.544c1.296-1.368,1.944-2.952,1.944-4.608
			c0-2.592-1.944-4.824-4.608-5.544L211.968,338.4c-0.288,0-0.648,0-0.648,0c-2.592-0.936-2.592-4.536,0-5.544
			c0,0,0.36-0.288,0.648-0.288l74.088-13.68l0,0c0,0,0.288,0,0.648,0l0,0c0.648,0,1.296,0.648,1.296,1.656
			c0,0.648-0.36,0.936-1.008,1.296c0,0,0,0-0.288,0l-36.072,12.024c-0.36,0-0.648,0.288-0.648,0.648
			c0,0.288,0.288,0.648,0.288,0.936c0.36,0,0.36,0,0.648,0l0,0L392.4,352.08c2.592,0,4.896,0.936,7.128,2.232
			c3.888,2.304,6.552,6.552,6.84,11.088c0,0.36,0,0.36,0,0.648c0,3.888-1.296,7.776-3.888,11.088l-15.624,17.568h-73.8
			l51.336-19.512L365.76,374.544z"/>
	</g>
</svg>
